<?xml version="1.0" encoding="UTF-8"?>
<svg version="1.1" xmlns="http://www.w3.org/2000/svg" width="180" height="180">
<path d="M0 0 C59.4 0 118.8 0 180 0 C180 59.4 180 118.8 180 180 C120.6 180 61.2 180 0 180 C0 120.6 0 61.2 0 0 Z " fill="#0672BA" transform="translate(0,0)"/>
<path d="M0 0 C59.4 0 118.8 0 180 0 C180 59.4 180 118.8 180 180 C120.6 180 61.2 180 0 180 C0 120.6 0 61.2 0 0 Z M35 33 C34.20722656 33.74636719 34.20722656 33.74636719 33.3984375 34.5078125 C19.68671214 47.49468894 11.49056762 66.05719942 10.7578125 84.8984375 C10.21611996 110.05757215 17.35707641 131.18057785 34.63720703 149.60595703 C48.18030075 163.45960539 66.39754979 171.68542677 85.72802734 172.53930664 C107.64605487 172.76938538 126.92291035 166.10356346 143 151 C151.51559601 142.29311321 151.51559601 142.29311321 153.234375 130.77734375 C152.94339746 127.32925987 151.87486111 124.89041088 150 122 C149.34 122 148.68 122 148 122 C148 121.34 148 120.68 148 120 C148.825 119.814375 149.65 119.62875 150.5 119.4375 C158.5943763 116.11302402 163.5889353 109.9201116 167 102 C169.42902717 94.80574757 169.3344048 83.70190982 166.09765625 76.76171875 C161.72006092 69.73575614 156.03862295 65.21359741 149 61 C149.474375 60.5875 149.94875 60.175 150.4375 59.75 C153.7403283 56.05083231 153.59380605 50.69075091 153.51171875 45.9296875 C151.78500732 36.04393502 140.6308205 28.71921176 132.85107422 23.23242188 C119.67790235 14.46189014 105.65680113 10.29457238 89.875 10.5625 C88.69035156 10.55541016 87.50570312 10.54832031 86.28515625 10.54101562 C66.93399105 10.67969542 48.19456985 18.70588266 35 33 Z " fill="#FDFEFE" transform="translate(0,0)"/>
<path d="M0 0 C2.87327084 2.63845673 4.60960834 5.10107727 6.62890625 8.4140625 C5.75878906 8.99800781 5.75878906 8.99800781 4.87109375 9.59375 C-4.21524029 16.10112454 -7.84362082 23.91625042 -11.87109375 34.0390625 C-14.9344368 41.70867322 -17.73854257 48.60299531 -25.18359375 52.9140625 C-30.35438954 55.11041957 -35.29567013 55.64423195 -40.578125 53.53125 C-45.25025966 50.91346769 -48.84266471 47.68714269 -50.37109375 42.4140625 C-51.09243283 36.82368461 -51.17800385 32.12098771 -48.74609375 26.9765625 C-44.19100827 22.06186501 -40.57846963 18.68134382 -33.62109375 18.1015625 C-28.86956012 18.16270356 -26.25530711 19.72499171 -22.37109375 22.4140625 C-21.66984375 23.1565625 -20.96859375 23.8990625 -20.24609375 24.6640625 C-18.48087974 26.65588175 -18.48087974 26.65588175 -15.80859375 26.7265625 C-13.23688324 26.47656003 -13.23688324 26.47656003 -10.37109375 25.4140625 C-9.93816423 22.32943968 -9.67974292 20.39258902 -10.37109375 17.4140625 C-14.50540747 12.43168443 -19.90886519 8.32423554 -26.37109375 7.4140625 C-36.93204813 6.80522699 -44.16779598 6.80568551 -52.55859375 13.7265625 C-59.43157867 20.0810824 -62.30393097 26.4825992 -62.68359375 35.7265625 C-62.41969487 44.244632 -60.172575 51.87745461 -54.56640625 58.3984375 C-48.42206822 64.03985818 -41.67721634 66.75105088 -33.37109375 67.1640625 C-25.33340083 66.78173861 -18.18621666 64.13269398 -12.36328125 58.45703125 C-10.98125202 56.81795794 -9.6683683 55.1210027 -8.37109375 53.4140625 C-7.71109375 53.4140625 -7.05109375 53.4140625 -6.37109375 53.4140625 C-6.32210937 54.18492188 -6.273125 54.95578125 -6.22265625 55.75 C-6.14789063 56.75289063 -6.073125 57.75578125 -5.99609375 58.7890625 C-5.89167969 60.28566406 -5.89167969 60.28566406 -5.78515625 61.8125 C-5.60745411 64.56915129 -5.60745411 64.56915129 -3.37109375 66.4140625 C-0.71572003 66.97926253 1.92035338 67.15194448 4.62890625 67.4140625 C-2.44914167 76.72728345 -11.95654215 81.93626959 -23.37109375 84.4140625 C-35.90439414 85.80350078 -47.25925471 82.98736454 -57.37109375 75.4140625 C-58.38816406 74.65996094 -58.38816406 74.65996094 -59.42578125 73.890625 C-68.25332393 66.79527937 -74.26287848 55.54622724 -76.37109375 44.4140625 C-77.56647813 28.44714255 -74.10645359 16.13063797 -63.85546875 3.5546875 C-46.27450087 -15.73317046 -19.58059512 -14.75714626 0 0 Z " fill="#F8FAFC" transform="translate(119.37109375,54.5859375)"/>
<path d="M0 0 C4.14072407 2.900803 6.97940587 5.95162377 8.48828125 10.85546875 C9.43147145 17.22200261 8.74325212 21.88363472 4.98828125 27.1640625 C1.99326017 30.54126074 -1.27579874 32.44349541 -5.51171875 33.85546875 C-6.84697592 33.93520351 -8.18583958 33.96318213 -9.5234375 33.953125 C-10.65942383 33.94829102 -10.65942383 33.94829102 -11.81835938 33.94335938 C-12.99688477 33.93079102 -12.99688477 33.93079102 -14.19921875 33.91796875 C-14.99650391 33.91345703 -15.79378906 33.90894531 -16.61523438 33.90429688 C-18.58076132 33.89252725 -20.5462496 33.87459223 -22.51171875 33.85546875 C-22.68535834 29.67476172 -22.81204618 25.4959858 -22.89624023 21.31274414 C-22.93134731 19.89147371 -22.97904905 18.47045443 -23.03979492 17.05004883 C-23.52620885 5.38020212 -23.52620885 5.38020212 -21.14868164 1.80688477 C-15.2493211 -2.76497661 -6.67056652 -3.03962051 0 0 Z " fill="#F9FCFD" transform="translate(147.51171875,75.14453125)"/>
<path d="M0 0 C0.67224609 -0.00386719 1.34449219 -0.00773437 2.03710938 -0.01171875 C5.11249752 -0.00561073 7.49776313 0.14508771 10.4375 1.125 C10.1075 1.785 9.7775 2.445 9.4375 3.125 C8.4475 2.795 7.4575 2.465 6.4375 2.125 C-2.29064972 1.23911459 -9.84523259 2.42659817 -16.859375 7.92578125 C-22.93201587 13.63273389 -26.27735489 19.69063852 -26.65234375 28.15234375 C-26.73039534 33.22569724 -26.45501573 38.1269119 -25.5625 43.125 C-24.9025 43.455 -24.2425 43.785 -23.5625 44.125 C-22.83556096 46.10388961 -22.16433749 48.10454558 -21.5625 50.125 C-27.07146884 45.80715956 -28.35929834 40.8871799 -29.5625 34.125 C-30.49982689 26.35674286 -29.25089572 18.78859808 -24.5703125 12.41015625 C-16.97877095 3.70672225 -11.663303 -0.02280216 0 0 Z " fill="#283D94" transform="translate(85.5625,60.875)"/>
<path d="M0 0 C0.66 0.33 1.32 0.66 2 1 C1.19175781 1.72445313 0.38351563 2.44890625 -0.44921875 3.1953125 C-1.52883737 4.17166325 -2.60825365 5.14823777 -3.6875 6.125 C-4.21794922 6.599375 -4.74839844 7.07375 -5.29492188 7.5625 C-12.67303997 14.26165017 -19.11026669 22.30714078 -24 31 C-24.33 30.34 -24.66 29.68 -25 29 C-20.83306181 17.50935225 -9.44675072 7.28749341 0 0 Z " fill="#199EDE" transform="translate(45,24)"/>
<path d="M0 0 C0.66 0.33 1.32 0.66 2 1 C1.51789063 1.38671875 1.03578125 1.7734375 0.5390625 2.171875 C-0.09257813 2.69265625 -0.72421875 3.2134375 -1.375 3.75 C-2.00148438 4.26046875 -2.62796875 4.7709375 -3.2734375 5.296875 C-6.02637443 8.01244175 -6.92035993 10.00652386 -7.23046875 13.875 C-7.21628906 14.90625 -7.20210938 15.9375 -7.1875 17 C-7.18105469 18.03125 -7.17460938 19.0625 -7.16796875 20.125 C-7.02449792 22.58068682 -6.7046041 24.65507755 -6 27 C-6.66 27 -7.32 27 -8 27 C-10.706639 20.97554544 -11.250625 16.62241848 -9.8359375 10.1640625 C-8.91066705 7.76873621 -7.88061687 6.70878385 -6 5 C-5.34 4.01 -4.68 3.02 -4 2 C-2 0.75 -2 0.75 0 0 Z " fill="#2F3E94" transform="translate(77,74)"/>
<path d="M0 0 C3.47162014 1.15720671 4.13156927 1.9425679 6 5 C7.55670753 10.09467919 7.67841461 15.96475618 6 21 C5.01 21.33 4.02 21.66 3 22 C3.15855469 21.43796875 3.31710938 20.8759375 3.48046875 20.296875 C5.23951332 12.52004637 4.0109579 6.76849146 0 0 Z " fill="#139BDE" transform="translate(151,78)"/>
<path d="M0 0 C0.66 0 1.32 0 2 0 C2.33 4.29 2.66 8.58 3 13 C6.465 12.505 6.465 12.505 10 12 C10.33 12.66 10.66 13.32 11 14 C9.54207116 14.05399736 8.08357288 14.09279177 6.625 14.125 C5.81289062 14.14820312 5.00078125 14.17140625 4.1640625 14.1953125 C2 14 2 14 0 12 C-0.1953125 9.1796875 -0.1953125 9.1796875 -0.125 5.875 C-0.10695313 4.77929688 -0.08890625 3.68359375 -0.0703125 2.5546875 C-0.04710938 1.71164063 -0.02390625 0.86859375 0 0 Z " fill="#1F3690" transform="translate(113,107)"/>
<path d="M0 0 C2.97 0 5.94 0 9 0 C9.33 0.66 9.66 1.32 10 2 C4.85714286 8.57142857 4.85714286 8.57142857 1 10 C2.44253657 6.63408134 4.33264727 4.48952921 7 2 C4.69 1.67 2.38 1.34 0 1 C0 0.67 0 0.34 0 0 Z " fill="#1D5EA7" transform="translate(116,121)"/>
<path d="M0 0 C2.25621163 1.08632412 4.37353544 2.23345965 6.5 3.5625 C8.7421556 4.85173947 10.48078813 5.53347928 13 6 C13 6.66 13 7.32 13 8 C8.00786149 7.53198701 3.87036007 5.08284263 0 2 C0 1.34 0 0.68 0 0 Z " fill="#303F94" transform="translate(66,113)"/>
<path d="M0 0 C0.99 0.33 1.98 0.66 3 1 C0.36 3.64 -2.28 6.28 -5 9 C-5.33 8.01 -5.66 7.02 -6 6 C-4.02 4.02 -2.04 2.04 0 0 Z " fill="#23338E" transform="translate(68,66)"/>
<path d="M0 0 C0.66 0.33 1.32 0.66 2 1 C0.90536178 2.17561146 -0.20107186 3.3402489 -1.3125 4.5 C-1.92738281 5.1496875 -2.54226562 5.799375 -3.17578125 6.46875 C-5 8 -5 8 -8 8 C-8 7.34 -8 6.68 -8 6 C-6.02678947 4.6273318 -4.02456848 3.29572383 -2 2 C-1.34 1.34 -0.68 0.68 0 0 Z " fill="#0E54A2" transform="translate(101,101)"/>
</svg>
